<svg version="1.1" viewBox="0.0 0.0 560.6325459317585 229.09186351706037" fill="none" stroke="none" stroke-linecap="square" stroke-miterlimit="10" xmlns:xlink="http://www.w3.org/1999/xlink" xmlns="http://www.w3.org/2000/svg"><clipPath id="p.0"><path d="m0 0l560.63257 0l0 229.09186l-560.63257 0l0 -229.09186z" clip-rule="nonzero"/></clipPath><g clip-path="url(#p.0)"><path fill="#000000" fill-opacity="0.0" d="m0 0l560.63257 0l0 229.09186l-560.63257 0z" fill-rule="evenodd"/><path fill="#000000" fill-opacity="0.0" d="m32.727036 25.61155l643.1496 0l0 207.74802l-643.1496 0z" fill-rule="evenodd"/><path fill="#000000" d="m48.727036 117.429054l0 -10.5l60.6875 -25.625l0 11.1875l-48.125 19.75l48.125 19.937492l0 11.1875l-60.6875 -25.937492zm419.9375 0l-60.6875 25.937492l0 -11.1875l48.0625 -19.937492l-48.0625 -19.75l0 -11.1875l60.6875 25.625l0 10.5z" fill-rule="nonzero"/><path fill="#000000" d="m185.91794 81.58836l-2.2654266 0.24763489l-2.6903992 0.4958954l-0.45980835 0.1057663l-0.42495728 0.14186859l-0.6016693 0.49526978l-0.28373718 0.6725998l0.07093811 0.7789993l0.21279907 0.38949585l1.699234 2.973503l1.0969391 1.9113998l1.1330261 1.9475021l2.5839996 4.4244614l0.21279907 0.38950348l0.5662079 0.38949585l0.63713074 0l0.5661926 -0.38949585l0.24827576 -0.38950348l2.548523 -4.4244614l1.1330414 -1.9475021l1.0969391 -1.9113998l1.7346954 -2.973503l0.17733765 -0.38949585l0.07092285 -0.7789993l-0.28373718 -0.6725998l-0.60165405 -0.49526978l-0.42497253 -0.14186859l-0.4597931 -0.1057663l-2.6903992 -0.4958954l-2.2660675 -0.24763489zm-15.7174225 5.309868l-0.77900696 0.106399536l-0.38887024 0.21216583l-0.38949585 0.21216583l-2.2660675 1.5579987l-1.7695312 1.4515991l-0.8499298 0.81383514l-0.8138428 0.8144684l-1.4161224 1.8050003l-1.5579987 2.2305984l-0.24763489 0.38950348l-0.21217346 0.42433167l-0.07092285 0.7435303l0.24761963 0.6725998l0.6023102 0.49590302l0.42433167 0.17669678l3.32753 0.8847656l2.159668 0.5668335l2.159668 0.56620026l4.955826 1.3451996l0.42497253 0.07093811l0.6726074 -0.106399536l0.42433167 -0.42497253l0.14186096 -0.707428l-0.106399536 -0.42497253l-1.3097382 -4.9558334l-0.6016693 -2.1596603l-0.5661926 -2.159668l-0.8854065 -3.2920685l-0.1412201 -0.4249649l-0.49591064 -0.6016693l-0.67259216 -0.2830963zm33.771866 0l-0.6726074 0.2830963l-0.4958954 0.6016693l-0.14123535 0.4249649l-0.88539124 3.2920685l-0.5662079 2.159668l-0.6016693 2.1596603l-1.3097229 4.9558334l-0.106414795 0.42497253l0.14187622 0.707428l0.42433167 0.42497253l0.67259216 0.106399536l0.42497253 -0.07093811l4.955841 -1.3451996l2.159668 -0.56620026l2.1596527 -0.5668335l3.3275452 -0.8847656l0.42433167 -0.17669678l0.5668335 -0.49590302l0.2830963 -0.6725998l-0.07093811 -0.7435303l-0.2121582 -0.42433167l-0.24827576 -0.38950348l-1.5573578 -2.2305984l-1.4161377 -1.8050003l-0.8138275 -0.8144684l-0.84994507 -0.81383514l-1.7701569 -1.4515991l-2.265442 -1.5579987l-0.38949585 -0.21216583l-0.38887024 -0.21216583l-0.7789917 -0.106399536zm-47.719772 19.788498l-0.67259216 0.2830963l-0.49526978 0.60230255l-0.106399536 0.42433167l-0.105773926 0.42497253l-0.4958954 2.6903992l-0.24763489 2.3008957l-0.035461426 1.1685028l0.035461426 1.1324005l0.24763489 2.301529l0.4958954 2.6903992l0.105773926 0.4243393l0.106399536 0.4249649l0.49526978 0.63713074l0.67259216 0.28310394l0.77900696 -0.07030487l0.38949585 -0.21279907l2.9734955 -1.699234l1.9468689 -1.1324005l1.9120331 -1.0975647l4.4599304 -2.5839996l0.35403442 -0.24826813l0.42497253 -0.56620026l0 -0.6016617l-0.42497253 -0.5668335l-0.35403442 -0.24763489l-4.4599304 -2.5485306l-1.9120331 -1.1330338l-1.9468689 -1.0975723l-2.9734955 -1.7340622l-0.38949585 -0.21279907l-0.77900696 -0.035469055zm61.667038 0l-0.7783661 0.07093048l-0.38949585 0.17733765l-2.9735107 1.7340622l-1.9474945 1.0975723l-1.9114075 1.1330338l-4.460556 2.5485306l-0.35403442 0.24763489l-0.42433167 0.5668335l0 0.6016617l0.42433167 0.56620026l0.35403442 0.24826813l4.460556 2.5839996l1.9114075 1.0975647l1.9474945 1.1324005l2.9735107 1.699234l0.38949585 0.21279907l0.7783661 0.07030487l0.67259216 -0.28310394l0.49591064 -0.63713074l0.106399536 -0.4249649l0.10575867 -0.4243393l0.49591064 -2.6903992l0.24761963 -2.301529l0.035476685 -1.1324005l-0.035476685 -1.1685028l-0.24761963 -2.3008957l-0.49591064 -2.6903992l-0.10575867 -0.42497253l-0.106399536 -0.42433167l-0.49591064 -0.60230255l-0.67259216 -0.2830963zm-30.833206 -2.65493l-1.0975647 0.035461426l-2.0532684 0.4249649l-1.8759308 0.7783737l-1.699234 1.1684952l-1.4161377 1.4161377l-1.1330261 1.663765l-0.8138275 1.9113998l-0.42497253 2.0532684l-0.035461426 1.0975647l0.035461426 1.0620956l0.42497253 2.0532684l0.8138275 1.9113998l1.1330261 1.663765l1.4161377 1.4516068l1.699234 1.1323929l1.8759308 0.77900696l2.0532684 0.4249649l1.0975647 0.035469055l1.0975647 -0.035469055l2.0532684 -0.4249649l1.8759308 -0.77900696l1.699234 -1.1323929l1.4161377 -1.4516068l1.1324005 -1.663765l0.8144684 -1.9113998l0.42497253 -2.0532684l0.035461426 -1.0620956l-0.035461426 -1.0975647l-0.42497253 -2.0532684l-0.8144684 -1.9113998l-1.1324005 -1.663765l-1.4161377 -1.4161377l-1.699234 -1.1684952l-1.8759308 -0.7783737l-2.0532684 -0.4249649l-1.0975647 -0.035461426zm-13.345596 22.656227l-0.42497253 0.07093811l-4.955826 1.345192l-2.159668 0.5662079l-2.159668 0.6016693l-3.32753 0.88539124l-0.42433167 0.14123535l-0.5668335 0.4958954l-0.2830963 0.6726074l0.07092285 0.7783661l0.21217346 0.38949585l0.24763489 0.3895111l1.5579987 2.2299652l1.4161224 1.8056335l0.8138428 0.8144684l0.8499298 0.8138275l1.7695312 1.4515991l2.2660675 1.557373l0.38949585 0.2482605l0.38887024 0.17669678l0.77900696 0.106399536l0.67259216 -0.2830963l0.49591064 -0.6022949l0.1412201 -0.42434692l0.8854065 -3.292694l0.5661926 -2.159027l0.6016693 -2.159668l1.3097382 -4.955841l0.106399536 -0.4249649l-0.14186096 -0.7080612l-0.42433167 -0.4243393l-0.6726074 -0.106399536zm26.691193 0l-0.67259216 0.106399536l-0.42433167 0.4243393l-0.14187622 0.7080612l0.106414795 0.4249649l1.3097229 4.955841l0.6016693 2.159668l0.5662079 2.159027l0.88539124 3.292694l0.14123535 0.42434692l0.4958954 0.6022949l0.6726074 0.2830963l0.7789917 -0.106399536l0.38887024 -0.17669678l0.38949585 -0.2482605l2.265442 -1.557373l1.7701569 -1.4515991l0.84994507 -0.8138275l0.8138275 -0.8144684l1.4161377 -1.8056335l1.5573578 -2.2299652l0.24827576 -0.3895111l0.2121582 -0.38949585l0.07093811 -0.7783661l-0.2830963 -0.6726074l-0.5668335 -0.4958954l-0.42433167 -0.14123535l-3.3275452 -0.88539124l-2.1596527 -0.6016693l-2.159668 -0.5662079l-4.955841 -1.345192l-0.42497253 -0.07093811zm-13.664154 5.4872055l-0.5662079 0.38887024l-0.21279907 0.38949585l-2.5839996 4.4250946l-1.1330261 1.9468689l-1.0969391 1.9120331l-1.699234 2.9734955l-0.21279907 0.42497253l-0.07093811 0.74290466l0.28373718 0.67259216l0.6016693 0.49591064l0.42495728 0.14186096l0.45980835 0.10575867l2.6903992 0.49591064l2.2654266 0.24763489l2.33638 0l2.2660675 -0.24763489l2.6903992 -0.49591064l0.4597931 -0.10575867l0.42497253 -0.14186096l0.60165405 -0.49591064l0.28373718 -0.67259216l-0.07092285 -0.74290466l-0.17733765 -0.42497253l-1.7346954 -2.9734955l-1.0969391 -1.9120331l-1.1330414 -1.9468689l-2.548523 -4.4250946l-0.24827576 -0.38949585l-0.5661926 -0.38887024zm0.31855774 -57.1007l2.0532684 0.035461426l3.964676 0.42497253l3.8588867 0.7783661l3.717041 1.1684952l3.5397034 1.4870682l3.3629913 1.8050003l3.1508331 2.159668l2.9025726 2.4073029l2.6903992 2.65493l2.4073029 2.938034l2.1241913 3.1508331l1.8404694 3.362999l1.4870758 3.5397034l1.1678619 3.7170334l0.7789917 3.8588943l0.3895111 3.9646683l0.035461426 2.0532684l-0.035461426 2.0177994l-0.3895111 4.0001297l-0.7789917 3.823433l-1.1678619 3.717041l-1.4870758 3.5397034l-1.8404694 3.3629913l-2.1241913 3.1508331l-2.4073029 2.938034l-2.6903992 2.6549377l-2.9025726 2.4427643l-3.1508331 2.1241913l-3.3629913 1.8050079l-3.5397034 1.4870605l-3.717041 1.1678772l-3.8588867 0.7789917l-3.964676 0.42497253l-2.0532684 0.035461426l-2.0532684 -0.035461426l-3.9646606 -0.42497253l-3.858902 -0.7789917l-3.7170258 -1.1678772l-3.5397034 -1.4870605l-3.3630066 -1.8050079l-3.1153564 -2.1241913l-2.938034 -2.4427643l-2.6903992 -2.6549377l-2.4073029 -2.938034l-2.1242065 -3.1508331l-1.8404694 -3.3629913l-1.4870605 -3.5397034l-1.1330261 -3.717041l-0.8138428 -3.823433l-0.38949585 -4.0001297l-0.035461426 -2.0177994l0.035461426 -2.0532684l0.38949585 -3.9646683l0.8138428 -3.8588943l1.1330261 -3.7170334l1.4870605 -3.5397034l1.8404694 -3.362999l2.1242065 -3.1508331l2.4073029 -2.938034l2.6903992 -2.65493l2.938034 -2.4073029l3.1153564 -2.159668l3.3630066 -1.8050003l3.5397034 -1.4870682l3.7170258 -1.1684952l3.858902 -0.7783661l3.9646606 -0.42497253l2.0532684 -0.035461426zm0 -26.904003l-0.6016693 0.035469055l-1.1330261 0.17669678l-0.5307312 0.21280289l0 1.0266304l-0.5668335 0.035469055l-0.5662079 0.034832l-0.106399536 -1.0614662l-0.5307312 -0.14186478l-1.1685028 -0.10640335l-0.5661926 0.035469055l-0.6016693 0.070934296l-1.0975647 0.31856537l-0.5307312 0.21216583l0.10575867 1.0620995l-0.5661926 0.070934296l-0.5662079 0.070934296l-0.21279907 -1.0266342l-0.5307312 -0.106399536l-1.1685028 0l-0.5661926 0.070934296l-0.6016693 0.14186478l-1.0621033 0.38886642l-0.49526978 0.28373337l0.17671204 1.0266342l-0.5662079 0.1057663l-0.5668335 0.14186478l-0.2830963 -0.99116516l-0.5307312 -0.070934296l-1.1685028 0.106399536l-0.5662079 0.14123535l-0.5661926 0.17733383l-1.0621033 0.49526596l-0.46043396 0.31856537l0.2830963 0.991169l-0.5661926 0.17733383l-0.5307312 0.17669678l-0.35403442 -0.99116516l-0.5668335 0l-1.1324005 0.21279907l-0.5668335 0.17670059l-0.5661926 0.21216583l-0.9911804 0.60230255l-0.42495728 0.3540306l0.35403442 0.9556999l-0.5307312 0.21216965l-0.5313721 0.24763107l-0.45980835 -0.9556999l-0.5313568 0.070934296l-1.1324005 0.28310013l-0.5313721 0.24826813l-0.5307312 0.24763107l-0.95570374 0.6725998l-0.38949585 0.38949966l0.42433167 0.9556999l-0.49526978 0.24763489l-0.5307312 0.28310013l-0.4958954 -0.9202347l-0.5662079 0.106399536l-1.0975647 0.38886642l-0.4958954 0.28373337l-0.5307312 0.31856918l-0.8493042 0.74290085l-0.38949585 0.4249649l0.5307312 0.9202347l-0.49526978 0.28373337l-0.4958954 0.31856537l-0.5662079 -0.8499336l-0.5668335 0.14186859l-1.0266266 0.49526596l-0.49526978 0.31856537l-0.4958954 0.35403442l-0.8138275 0.81446457l-0.318573 0.46043396l0.6016693 0.8493004l-0.46043396 0.35403442l-0.45980835 0.3540306l-0.67259216 -0.81446457l-0.5313721 0.21279907l-0.99116516 0.56620026l-0.4597931 0.38949966l-0.46043396 0.38949966l-0.70806885 0.8847656l-0.318573 0.49590302l0.70806885 0.7783661l-0.46043396 0.38949585l-0.38949585 0.38950348l-0.74290466 -0.7435303l-0.5313568 0.24762726l-0.95570374 0.6725998l-0.42497253 0.38950348l-0.38949585 0.4249649l-0.6726074 0.95570374l-0.24763489 0.4958954l0.74354553 0.7783661l-0.3895111 0.38950348l-0.38949585 0.4249649l-0.7783661 -0.6725998l-0.4958954 0.31856537l-0.8847656 0.70806885l-0.3895111 0.46043396l-0.38949585 0.45980072l-0.5661926 0.99116516l-0.17733765 0.53136444l0.77900696 0.6725998l-0.35403442 0.45980072l-0.35403442 0.46043396l-0.8493042 -0.6016617l-0.46043396 0.31856537l-0.8144684 0.81383514l-0.35403442 0.4958954l-0.31855774 0.49526978l-0.49526978 1.0266342l-0.14187622 0.5668335l0.84994507 0.56620026l-0.318573 0.4958954l-0.28373718 0.49526978l-0.92022705 -0.53073883l-0.42497253 0.35403442l-0.7428894 0.8847656l-0.318573 0.49590302l-0.28373718 0.5307312l-0.38887024 1.0975723l-0.106399536 0.56620026l0.9202423 0.4958954l-0.2830963 0.49526978l-0.24763489 0.5307312l-0.95570374 -0.42433167l-0.38950348 0.38949585l-0.6725998 0.95570374l-0.24762726 0.5307312l-0.24826813 0.53136444l-0.28310394 1.0969391l-0.07093048 0.5668335l0.9208679 0.45980072l-0.21279907 0.53136444l-0.21216583 0.5307312l-0.95570374 -0.35403442l-0.35403442 0.42497253l-0.6022949 0.99116516l-0.21217346 0.56620026l-0.17669678 0.5668335l-0.21279907 1.1324005l0 0.5668335l0.9556961 0.3540268l-0.17669678 0.53073883l-0.14186859 0.56620026l-0.99116516 -0.28310394l-0.31856537 0.46043396l-0.49526978 1.0621033l-0.17733002 0.56620026l-0.14123535 0.56620026l-0.106399536 1.1330338l0.07093048 0.56620026l0.9911728 0.2830963l-0.14186859 0.5668335l-0.1057663 0.56620026l-1.0266342 -0.17669678l-0.28373718 0.49526215l-0.3888626 1.0621033l-0.14186859 0.56620026l-0.07093048 0.6016617l0 1.1330338l0.106399536 0.56620026l1.0266342 0.17733765l-0.106399536 0.56620026l-0.07093811 0.6016617l-1.0266342 -0.1057663l-0.21216583 0.53073883l-0.31856537 1.0975647l-0.07093048 0.6016617l-0.035469055 0.56620026l0.106399536 1.1685028l0.14186859 0.5307312l1.0266342 0.106399536l-0.035469055 0.56620026l0 0.5668335l-1.0266342 0l-0.21279907 0.53073883l-0.17669678 1.1330338l-0.035469055 0.6016617l0.035469055 0.6016693l0.17669678 1.1330338l0.21279907 0.5307312l1.0266342 0l0 0.5668335l0.035469055 0.56620026l-1.0266342 0.106399536l-0.14186859 0.5307312l-0.106399536 1.1685028l0.035469055 0.56620026l0.07093048 0.6016693l0.31856537 1.0975647l0.21216583 0.5307312l1.0266342 -0.1057663l0.07093811 0.6016693l0.07093048 0.56620026l-0.99116516 0.17733002l-0.106399536 0.5307312l0 1.1678696l0.106399536 0.60230255l0.106399536 0.56620026l0.3888626 1.0620956l0.28373718 0.49526978l0.99116516 -0.17669678l0.14123535 0.5661926l0.106399536 0.5668335l-0.95570374 0.2830963l-0.07093048 0.5662079l0.106399536 1.1330261l0.14123535 0.5662079l0.17733002 0.5661926l0.49526978 1.0621033l0.31856537 0.46043396l0.95570374 -0.2830963l0.17733002 0.5661926l0.17669678 0.5662079l-0.9556961 0.31855774l0 0.5668335l0.21279907 1.1324005l0.17669678 0.5668335l0.21217346 0.5662079l0.6022949 0.99116516l0.35403442 0.42497253l0.95570374 -0.35403442l0.21216583 0.5661926l0.21279907 0.5307312l-0.9208679 0.42497253l0.07093048 0.5313568l0.28310394 1.1324005l0.24826813 0.5313721l0.24762726 0.5307312l0.6725998 0.95570374l0.38950348 0.38949585l0.92022705 -0.42495728l0.28311157 0.5313568l0.24763489 0.49526978l-0.8847809 0.4958954l0.106399536 0.5662079l0.38887024 1.0975647l0.28373718 0.49526978l0.318573 0.5313568l0.7428894 0.8493042l0.42497253 0.38949585l0.88539124 -0.49525452l0.318573 0.4597931l0.318573 0.4958954l-0.84994507 0.5662079l0.14187622 0.5661926l0.49526978 1.0266418l0.31855774 0.4958954l0.35403442 0.4958954l0.8144684 0.8138428l0.46043396 0.31855774l0.8493042 -0.60165405l0.35403442 0.46043396l0.35403442 0.4597931l-0.77900696 0.67259216l0.17733765 0.5313721l0.5661926 0.99116516l0.38949585 0.45980835l0.3895111 0.46043396l0.8847656 0.70806885l0.4958954 0.31855774l0.7783661 -0.67259216l0.38949585 0.42495728l0.3895111 0.42433167l-0.74354553 0.70806885l0.24763489 0.5313721l0.6726074 0.95570374l0.38949585 0.42495728l0.42497253 0.38887024l0.95570374 0.67259216l0.5313568 0.24827576l0.70806885 -0.7435303l0.42433167 0.38949585l0.42497253 0.38949585l-0.6726074 0.7783661l0.318573 0.49591064l0.70806885 0.8847656l0.46043396 0.38949585l0.4597931 0.38949585l0.99116516 0.5662079l0.5313721 0.17732239l0.67259216 -0.7789917l0.42433167 0.35403442l0.46043396 0.35403442l-0.5661926 0.84928894l0.318573 0.46043396l0.8138275 0.8144684l0.4958954 0.35403442l0.49526978 0.318573l1.0266266 0.49526978l0.5668335 0.14186096l0.5662079 -0.8144684l0.4958954 0.2830963l0.45980835 0.318573l-0.49526978 0.88539124l0.38949585 0.42434692l0.8493042 0.7435303l0.5307312 0.31855774l0.4958954 0.28311157l1.0975647 0.38949585l0.5662079 0.106399536l0.4958954 -0.8847656l0.49526978 0.2830963l0.5307312 0.24763489l-0.42433167 0.92022705l0.38949585 0.3895111l0.95570374 0.67259216l0.5307312 0.24763489l0.5313721 0.2482605l1.1324005 0.28311157l0.5313568 0.07092285l0.42434692 -0.9208679l0.5313568 0.21281433l0.5307312 0.24761963l-0.31855774 0.9202423l0.42495728 0.35403442l0.9911804 0.6016693l0.5661926 0.21279907l0.5668335 0.17669678l1.1324005 0.21279907l0.5668335 0l0.318573 -0.95632935l0.5661926 0.17732239l0.5307312 0.17671204l-0.24763489 0.95632935l0.46043396 0.31855774l1.0621033 0.49526978l0.5661926 0.17733765l0.5662079 0.14123535l1.1685028 0.07092285l0.5307312 -0.035461426l0.2830963 -0.95570374l0.5668335 0.14187622l0.5662079 0.10575867l-0.17671204 0.99116516l0.49526978 0.28311157l1.0621033 0.38949585l0.6016693 0.106399536l0.5661926 0.106399536l1.1685028 0l0.5307312 -0.106399536l0.17733765 -0.99116516l0.5661926 0.07093811l0.6016693 0.07029724l-0.10575867 1.0266266l0.5307312 0.21279907l1.0975647 0.318573l0.6016693 0.07092285l0.5661926 0.035476685l1.1685028 -0.106399536l0.5307312 -0.14187622l0.106399536 -1.0266266l0.5662079 0.035461426l0.5668335 0.035476685l0 0.99116516l0.5307312 0.21279907l1.1330261 0.17669678l0.6016693 0.035461426l0.6016693 -0.035461426l1.1330414 -0.21217346l0.5307312 -0.17732239l0 -0.99116516l0.5668335 -0.035476685l0.5661926 -0.035461426l0.106399536 1.0266266l0.5307312 0.14187622l1.1685028 0.106399536l0.5662079 -0.035476685l0.60165405 -0.07092285l1.09758 -0.318573l0.5307312 -0.21279907l-0.105773926 -1.0266266l0.6016693 -0.07029724l0.5662079 -0.07093811l0.17732239 0.99116516l0.5307312 0.106399536l1.1678772 0l0.6022949 -0.106399536l0.5661926 -0.106399536l1.0621033 -0.38949585l0.49526978 -0.28311157l-0.14123535 -0.99116516l0.5307312 -0.10575867l0.5668335 -0.14187622l0.28311157 0.95570374l0.5661926 0.035461426l1.1330414 -0.07092285l0.5661926 -0.14123535l0.5662079 -0.17733765l1.062088 -0.49526978l0.46043396 -0.31855774l-0.24763489 -0.95632935l0.5307312 -0.17671204l0.5662079 -0.17732239l0.318573 0.95632935l0.5668335 0l1.1324005 -0.21279907l0.5668335 -0.17669678l0.5661926 -0.21279907l0.99116516 -0.6016693l0.42497253 -0.35403442l-0.318573 -0.9202423l0.5307312 -0.24761963l0.5307312 -0.21281433l0.42497253 0.9208679l0.5668335 -0.07092285l1.0969391 -0.28311157l0.5313568 -0.2482605l0.5307312 -0.24763489l0.95570374 -0.67259216l0.38949585 -0.3895111l-0.42495728 -0.92022705l0.5313568 -0.24763489l0.49526978 -0.2830963l0.49591064 0.8847656l0.5661926 -0.106399536l1.0975647 -0.38949585l0.49526978 -0.28311157l0.5313721 -0.31855774l0.84928894 -0.7435303l0.3895111 -0.42434692l-0.49526978 -0.88539124l0.4597931 -0.318573l0.49591064 -0.2830963l0.60165405 0.8144684l0.53074646 -0.14186096l1.0266266 -0.49526978l0.4958954 -0.318573l0.49591064 -0.35403442l0.8138275 -0.8144684l0.318573 -0.46043396l-0.5662079 -0.84928894l0.45980835 -0.35403442l0.42495728 -0.35403442l0.6726074 0.7789917l0.5313568 -0.17732239l0.99116516 -0.5662079l0.45980835 -0.38949585l0.46043396 -0.38949585l0.70806885 -0.8847656l0.31855774 -0.49591064l-0.67259216 -0.7783661l0.42495728 -0.38949585l0.42433167 -0.38949585l0.70806885 0.7435303l0.5313721 -0.24827576l0.95570374 -0.67259216l0.42495728 -0.38887024l0.38887024 -0.42495728l0.6726074 -0.95570374l0.2482605 -0.5313721l-0.7435303 -0.70806885l0.38949585 -0.42433167l0.38949585 -0.42495728l0.7783661 0.67259216l0.49591064 -0.31855774l0.8847656 -0.70806885l0.38949585 -0.46043396l0.38949585 -0.45980835l0.5662079 -0.99116516l0.17733765 -0.5313721l-0.77900696 -0.67259216l0.35403442 -0.4597931l0.35403442 -0.46043396l0.8493042 0.60165405l0.46043396 -0.31855774l0.8144531 -0.8138428l0.35403442 -0.4958954l0.318573 -0.4958954l0.49526978 -1.0266418l0.14186096 -0.5661926l-0.8499298 -0.5662079l0.31855774 -0.4958954l0.318573 -0.4597931l0.8854065 0.49525452l0.42433167 -0.38949585l0.7435303 -0.8493042l0.31855774 -0.5313568l0.28311157 -0.49526978l0.38949585 -1.0975647l0.106399536 -0.5662079l-0.8847656 -0.4958954l0.24763489 -0.49526978l0.2830963 -0.5313568l0.9202423 0.42495728l0.38949585 -0.38949585l0.67259216 -0.95570374l0.24763489 -0.5307312l0.24827576 -0.5313721l0.2830963 -1.0969238l0.07093811 -0.5668335l-0.9208679 -0.42497253l0.21279907 -0.5307312l0.2121582 -0.5661926l0.95570374 0.35403442l0.35403442 -0.42497253l0.6016693 -0.99116516l0.21279907 -0.5662079l0.17669678 -0.5668335l0.21279907 -1.1324005l0 -0.5668335l-0.95632935 -0.31855774l0.17733765 -0.5662079l0.17669678 -0.5661926l0.95632935 0.2830963l0.318573 -0.46043396l0.49525452 -1.0621033l0.17733765 -0.5661926l0.14123535 -0.5662079l0.106399536 -1.1330261l-0.07093811 -0.5662079l-0.9556885 -0.2830963l0.106399536 -0.5668335l0.1412201 -0.5661926l0.9911804 0.17669678l0.2830963 -0.49526978l0.38949585 -1.0620956l0.14186096 -0.56620026l0.07093811 -0.60230255l0 -1.1678696l-0.106399536 -0.5307312l-0.99116516 -0.17733002l0.07093811 -0.56620026l0.07029724 -0.6016693l1.0266266 0.1057663l0.21279907 -0.5307312l0.318573 -1.0975647l0.07093811 -0.6016693l0.035461426 -0.56620026l-0.106399536 -1.1685028l-0.14186096 -0.5307312l-1.0266418 -0.106399536l0.035461426 -0.56620026l0 -0.5668335l1.0266418 0l0.21279907 -0.5307312l0.17669678 -1.1330338l0.035476685 -0.6016693l-0.035476685 -0.6016617l-0.17669678 -1.1330338l-0.21279907 -0.53073883l-1.0266418 0l0 -0.5668335l-0.035461426 -0.56620026l1.0266418 -0.106399536l0.14186096 -0.5307312l0.106399536 -1.1685028l-0.035461426 -0.56620026l-0.07093811 -0.6016617l-0.318573 -1.0975647l-0.21279907 -0.53073883l-1.0266266 0.1057663l-0.07029724 -0.56620026l-0.106399536 -0.56620026l1.0266266 -0.21279907l0.106399536 -0.5307312l0 -1.1685028l-0.07093811 -0.56620026l-0.14186096 -0.6016617l-0.38949585 -1.0621033l-0.2830963 -0.49526215l-1.0266418 0.17669678l-0.10575867 -0.56620026l-0.106399536 -0.5668335l0.9556885 -0.2830963l0.07093811 -0.53073883l-0.106399536 -1.1684952l-0.14123535 -0.56620026l-0.17733765 -0.56620026l-0.49525452 -1.0621033l-0.318573 -0.46043396l-0.99116516 0.28310394l-0.14186096 -0.56620026l-0.17733765 -0.53073883l0.95632935 -0.3540268l0 -0.5668335l-0.21279907 -1.1324005l-0.17669678 -0.5668335l-0.21279907 -0.56620026l-0.6016693 -0.99116516l-0.35403442 -0.42497253l-0.95570374 0.35403442l-0.2121582 -0.5307312l-0.21279907 -0.53136444l0.9208679 -0.45980072l-0.07093811 -0.5313721l-0.2830963 -1.1324005l-0.24827576 -0.53136444l-0.24763489 -0.5307312l-0.67259216 -0.95570374l-0.38949585 -0.38949585l-0.9202423 0.42433167l-0.2830963 -0.49526978l-0.2830963 -0.5307312l0.92022705 -0.4958954l-0.106399536 -0.56620026l-0.38949585 -1.0975723l-0.28311157 -0.4958954l-0.31855774 -0.53073883l-0.7435303 -0.84929657l-0.42433167 -0.38950348l-0.9208679 0.53073883l-0.28311157 -0.49526978l-0.31855774 -0.4958954l0.8499298 -0.56620026l-0.14186096 -0.5668335l-0.49526978 -1.0266342l-0.318573 -0.49526978l-0.35403442 -0.4958954l-0.8144531 -0.81383514l-0.46043396 -0.31856537l-0.8493042 0.6016617l-0.35403442 -0.46043396l-0.35403442 -0.45980072l0.77900696 -0.6725998l-0.17733765 -0.53136444l-0.5662079 -0.99116516l-0.38949585 -0.45980072l-0.38949585 -0.46043396l-0.8847656 -0.70806885l-0.49591064 -0.31856537l-0.7783661 0.6725998l-0.38949585 -0.4249649l-0.38949585 -0.38950348l0.7435303 -0.74289703l-0.2482605 -0.53136444l-0.6726074 -0.95570374l-0.38887024 -0.4249649l-0.42495728 -0.38950348l-0.95570374 -0.6725998l-0.5313721 -0.24762726l-0.7435303 0.7435303l-0.38887024 -0.38950348l-0.46043396 -0.38949585l0.70806885 -0.7783661l-0.31855774 -0.49590302l-0.70806885 -0.8847656l-0.46043396 -0.38949966l-0.45980835 -0.38949966l-0.99116516 -0.56620026l-0.5313568 -0.17733383l-0.6726074 0.7789993l-0.4597931 -0.3540306l-0.46043396 -0.35403442l0.6016693 -0.8493004l-0.318573 -0.46043396l-0.8138275 -0.81446457l-0.49591064 -0.35403442l-0.4958954 -0.31856537l-1.0266266 -0.49526596l-0.53074646 -0.14186859l-0.60165405 0.8499336l-0.49591064 -0.31856537l-0.49526978 -0.28373337l0.53074646 -0.9202347l-0.3895111 -0.4249649l-0.84928894 -0.74290085l-0.5313721 -0.31856918l-0.49526978 -0.28373337l-1.0975647 -0.38886642l-0.5661926 -0.106399536l-0.49591064 0.9202347l-0.5307312 -0.28310013l-0.4958954 -0.24763489l0.42495728 -0.9556999l-0.38949585 -0.38949966l-0.95570374 -0.6725998l-0.5307312 -0.24763107l-0.5313568 -0.24826813l-1.0969391 -0.28310013l-0.5668335 -0.070934296l-0.4597931 0.9556999l-0.5313721 -0.24763107l-0.5307312 -0.21216965l0.35403442 -0.9556999l-0.42497253 -0.3540306l-0.99116516 -0.60230255l-0.5661926 -0.21216583l-0.5668335 -0.17670059l-1.1324005 -0.21279907l-0.5668335 0l-0.35403442 0.99116516l-0.53074646 -0.17669678l-0.5661926 -0.17733383l0.2830963 -0.991169l-0.46043396 -0.31856537l-1.062088 -0.49526596l-0.5662079 -0.17733383l-0.5661926 -0.14123535l-1.1330414 -0.106399536l-0.5661926 0.070934296l-0.28311157 0.99116516l-0.5668335 -0.14186478l-0.5661926 -0.1057663l0.17669678 -1.0266342l-0.4597931 -0.28373337l-1.09758 -0.38886642l-0.5661926 -0.14186478l-0.6022949 -0.070934296l-1.1324005 0l-0.5662079 0.106399536l-0.17732239 1.0266342l-0.5662079 -0.070934296l-0.6016693 -0.070934296l0.105773926 -1.0620995l-0.5307312 -0.21216583l-1.09758 -0.31856537l-0.60165405 -0.070934296l-0.5662079 -0.035469055l-1.1685028 0.10640335l-0.5307312 0.14186478l-0.106399536 1.0614662l-0.5661926 -0.034832l-0.5668335 -0.035469055l0 -1.0266304l-0.5307312 -0.21280289l-1.1330414 -0.17669678l-0.6016693 -0.035469055z" fill-rule="evenodd"/><path fill="#000000" d="m328.16205 81.58836l-2.265442 0.24763489l-2.6903992 0.4958954l-0.45980835 0.1057663l-0.42495728 0.14186859l-0.60165405 0.49526978l-0.28375244 0.6725998l0.07092285 0.7789993l0.21282959 0.38949585l1.6992188 2.973503l1.0969238 1.9113998l1.1330566 1.9475021l2.5839844 4.4244614l0.21279907 0.38950348l0.5661926 0.38949585l0.637146 0l0.5661926 -0.38949585l0.2482605 -0.38950348l2.5485535 -4.4244614l1.1330261 -1.9475021l1.0969238 -1.9113998l1.7347107 -2.973503l0.17733765 -0.38949585l0.07092285 -0.7789993l-0.28372192 -0.6725998l-0.6016846 -0.49526978l-0.42495728 -0.14186859l-0.45980835 -0.1057663l-2.6903992 -0.4958954l-2.2660522 -0.24763489zm-15.717438 5.309868l-0.7789917 0.106399536l-0.3888855 0.21216583l-0.38949585 0.21216583l-2.2660522 1.5579987l-1.7695312 1.4515991l-0.84994507 0.81383514l-0.8138428 0.8144684l-1.4161377 1.8050003l-1.5579834 2.2305984l-0.24765015 0.38950348l-0.2121582 0.42433167l-0.07092285 0.7435303l0.24761963 0.6725998l0.6022949 0.49590302l0.42434692 0.17669678l3.3275452 0.8847656l2.1596375 0.5668335l2.159668 0.56620026l4.955841 1.3451996l0.42495728 0.07093811l0.6726074 -0.106399536l0.42434692 -0.42497253l0.1418457 -0.707428l-0.10638428 -0.42497253l-1.3097229 -4.9558334l-0.6016846 -2.1596603l-0.5661926 -2.159668l-0.8854065 -3.2920685l-0.14123535 -0.4249649l-0.49588013 -0.6016693l-0.6726074 -0.2830963zm33.77185 0l-0.6725769 0.2830963l-0.49591064 0.6016693l-0.14123535 0.4249649l-0.8854065 3.2920685l-0.5661926 2.159668l-0.60165405 2.1596603l-1.3097534 4.9558334l-0.10638428 0.42497253l0.1418457 0.707428l0.42434692 0.42497253l0.6726074 0.106399536l0.42495728 -0.07093811l4.955841 -1.3451996l2.159668 -0.56620026l2.159668 -0.5668335l3.3275146 -0.8847656l0.42434692 -0.17669678l0.5668335 -0.49590302l0.28308105 -0.6725998l-0.07092285 -0.7435303l-0.2121582 -0.42433167l-0.2482605 -0.38950348l-1.557373 -2.2305984l-1.4161377 -1.8050003l-0.8138428 -0.8144684l-0.84991455 -0.81383514l-1.7701721 -1.4515991l-2.265442 -1.5579987l-0.38949585 -0.21216583l-0.38885498 -0.21216583l-0.7790222 -0.106399536zm-47.719757 19.788498l-0.6726074 0.2830963l-0.49526978 0.60230255l-0.10638428 0.42433167l-0.105773926 0.42497253l-0.49591064 2.6903992l-0.24761963 2.3008957l-0.035461426 1.1685028l0.035461426 1.1324005l0.24761963 2.301529l0.49591064 2.6903992l0.105773926 0.4243393l0.10638428 0.4249649l0.49526978 0.63713074l0.6726074 0.28310394l0.7789917 -0.07030487l0.38949585 -0.21279907l2.9735107 -1.699234l1.9468689 -1.1324005l1.9120483 -1.0975647l4.4599304 -2.5839996l0.35403442 -0.24826813l0.42495728 -0.56620026l0 -0.6016617l-0.42495728 -0.5668335l-0.35403442 -0.24763489l-4.4599304 -2.5485306l-1.9120483 -1.1330338l-1.9468689 -1.0975723l-2.9735107 -1.7340622l-0.38949585 -0.21279907l-0.7789917 -0.035469055zm61.667023 0l-0.77835083 0.07093048l-0.38949585 0.17733765l-2.9735107 1.7340622l-1.9475098 1.0975723l-1.911377 1.1330338l-4.4605713 2.5485306l-0.35403442 0.24763489l-0.42434692 0.5668335l0 0.6016617l0.42434692 0.56620026l0.35403442 0.24826813l4.4605713 2.5839996l1.911377 1.0975647l1.9475098 1.1324005l2.9735107 1.699234l0.38949585 0.21279907l0.77835083 0.07030487l0.6726074 -0.28310394l0.49591064 -0.63713074l0.10638428 -0.4249649l0.105773926 -0.4243393l0.49591064 -2.6903992l0.24761963 -2.301529l0.035461426 -1.1324005l-0.035461426 -1.1685028l-0.24761963 -2.3008957l-0.49591064 -2.6903992l-0.105773926 -0.42497253l-0.10638428 -0.42433167l-0.49591064 -0.60230255l-0.6726074 -0.2830963zm-30.83319 -2.65493l-1.0975647 0.035461426l-2.0532532 0.4249649l-1.875946 0.7783737l-1.6992188 1.1684952l-1.4161377 1.4161377l-1.1330566 1.663765l-0.81381226 1.9113998l-0.4249878 2.0532684l-0.035461426 1.0975647l0.035461426 1.0620956l0.4249878 2.0532684l0.81381226 1.9113998l1.1330566 1.663765l1.4161377 1.4516068l1.6992188 1.1323929l1.875946 0.77900696l2.0532532 0.4249649l1.0975647 0.035469055l1.0975647 -0.035469055l2.0532837 -0.4249649l1.8759155 -0.77900696l1.6992493 -1.1323929l1.4161377 -1.4516068l1.1323853 -1.663765l0.8144531 -1.9113998l0.4249878 -2.0532684l0.035461426 -1.0620956l-0.035461426 -1.0975647l-0.4249878 -2.0532684l-0.8144531 -1.9113998l-1.1323853 -1.663765l-1.4161377 -1.4161377l-1.6992493 -1.1684952l-1.8759155 -0.7783737l-2.0532837 -0.4249649l-1.0975647 -0.035461426zm-13.345612 22.656227l-0.42495728 0.07093811l-4.955841 1.345192l-2.159668 0.5662079l-2.1596375 0.6016693l-3.3275452 0.88539124l-0.42434692 0.14123535l-0.5668335 0.4958954l-0.28308105 0.6726074l0.07092285 0.7783661l0.2121582 0.38949585l0.24765015 0.3895111l1.5579834 2.2299652l1.4161377 1.8056335l0.8138428 0.8144684l0.84994507 0.8138275l1.7695312 1.4515991l2.2660522 1.557373l0.38949585 0.2482605l0.3888855 0.17669678l0.7789917 0.106399536l0.6726074 -0.2830963l0.49588013 -0.6022949l0.14123535 -0.42434692l0.8854065 -3.292694l0.5661926 -2.159027l0.6016846 -2.159668l1.3097229 -4.955841l0.10638428 -0.4249649l-0.1418457 -0.7080612l-0.42434692 -0.4243393l-0.6726074 -0.106399536zm26.691223 0l-0.6726074 0.106399536l-0.42434692 0.4243393l-0.1418457 0.7080612l0.10638428 0.4249649l1.3097534 4.955841l0.60165405 2.159668l0.5661926 2.159027l0.8854065 3.292694l0.14123535 0.42434692l0.49591064 0.6022949l0.6725769 0.2830963l0.7790222 -0.106399536l0.38885498 -0.17669678l0.38949585 -0.2482605l2.265442 -1.557373l1.7701721 -1.4515991l0.84991455 -0.8138275l0.8138428 -0.8144684l1.4161377 -1.8056335l1.557373 -2.2299652l0.2482605 -0.3895111l0.2121582 -0.38949585l0.07092285 -0.7783661l-0.28308105 -0.6726074l-0.5668335 -0.4958954l-0.42434692 -0.14123535l-3.3275146 -0.88539124l-2.159668 -0.6016693l-2.159668 -0.5662079l-4.955841 -1.345192l-0.42495728 -0.07093811zm-13.664185 5.4872055l-0.5661926 0.38887024l-0.21279907 0.38949585l-2.5839844 4.4250946l-1.1330566 1.9468689l-1.0969238 1.9120331l-1.6992188 2.9734955l-0.21282959 0.42497253l-0.07092285 0.74290466l0.28375244 0.67259216l0.60165405 0.49591064l0.42495728 0.14186096l0.45980835 0.10575867l2.6903992 0.49591064l2.265442 0.24763489l2.3363647 0l2.2660522 -0.24763489l2.6903992 -0.49591064l0.45980835 -0.10575867l0.42495728 -0.14186096l0.6016846 -0.49591064l0.28372192 -0.67259216l-0.07092285 -0.74290466l-0.17733765 -0.42497253l-1.7347107 -2.9734955l-1.0969238 -1.9120331l-1.1330261 -1.9468689l-2.5485535 -4.4250946l-0.2482605 -0.38949585l-0.5661926 -0.38887024zm0.318573 -57.1007l2.0532837 0.035461426l3.9646606 0.42497253l3.8588867 0.7783661l3.717041 1.1684952l3.5397034 1.4870682l3.3630066 1.8050003l3.1508179 2.159668l2.9025574 2.4073029l2.6903992 2.65493l2.407318 2.938034l2.1242065 3.1508331l1.8404541 3.362999l1.4870605 3.5397034l1.1678772 3.7170334l0.7789917 3.8588943l0.38949585 3.9646683l0.035461426 2.0532684l-0.035461426 2.0177994l-0.38949585 4.0001297l-0.7789917 3.823433l-1.1678772 3.717041l-1.4870605 3.5397034l-1.8404541 3.3629913l-2.1242065 3.1508331l-2.407318 2.938034l-2.6903992 2.6549377l-2.9025574 2.4427643l-3.1508179 2.1241913l-3.3630066 1.8050079l-3.5397034 1.4870605l-3.717041 1.1678772l-3.8588867 0.7789917l-3.9646606 0.42497253l-2.0532837 0.035461426l-2.0532532 -0.035461426l-3.9646912 -0.42497253l-3.8588867 -0.7789917l-3.717041 -1.1678772l-3.5397034 -1.4870605l-3.362976 -1.8050079l-3.115387 -2.1241913l-2.9380188 -2.4427643l-2.6903992 -2.6549377l-2.407318 -2.938034l-2.124176 -3.1508331l-1.8404846 -3.3629913l-1.4870605 -3.5397034l-1.1330261 -3.717041l-0.8138428 -3.823433l-0.38949585 -4.0001297l-0.035461426 -2.0177994l0.035461426 -2.0532684l0.38949585 -3.9646683l0.8138428 -3.8588943l1.1330261 -3.7170334l1.4870605 -3.5397034l1.8404846 -3.362999l2.124176 -3.1508331l2.407318 -2.938034l2.6903992 -2.65493l2.9380188 -2.4073029l3.115387 -2.159668l3.362976 -1.8050003l3.5397034 -1.4870682l3.717041 -1.1684952l3.8588867 -0.7783661l3.9646912 -0.42497253l2.0532532 -0.035461426zm0 -26.904003l-0.60165405 0.035469055l-1.1330566 0.17669678l-0.5307312 0.21280289l0 1.0266304l-0.5668335 0.035469055l-0.5661926 0.034832l-0.10638428 -1.0614662l-0.5307312 -0.14186478l-1.1685181 -0.10640335l-0.5661926 0.035469055l-0.60165405 0.070934296l-1.0975952 0.31856537l-0.5307312 0.21216583l0.105773926 1.0620995l-0.5661926 0.070934296l-0.5661926 0.070934296l-0.21279907 -1.0266342l-0.5307312 -0.106399536l-1.1685181 0l-0.5661926 0.070934296l-0.6016846 0.14186478l-1.0620728 0.38886642l-0.49526978 0.28373337l0.17669678 1.0266342l-0.5661926 0.1057663l-0.5668335 0.14186478l-0.28311157 -0.99116516l-0.5307312 -0.070934296l-1.1685181 0.106399536l-0.5661926 0.14123535l-0.5661926 0.17733383l-1.0621033 0.49526596l-0.4604187 0.31856537l0.28308105 0.991169l-0.5661926 0.17733383l-0.5307312 0.17669678l-0.35403442 -0.99116516l-0.5668335 0l-1.1324158 0.21279907l-0.5668335 0.17670059l-0.5661926 0.21216583l-0.9911499 0.60230255l-0.4249878 0.3540306l0.35403442 0.9556999l-0.5307312 0.21216965l-0.5313721 0.24763107l-0.45977783 -0.9556999l-0.5313721 0.070934296l-1.1324158 0.28310013l-0.53134155 0.24826813l-0.5307312 0.24763107l-0.955719 0.6725998l-0.38949585 0.38949966l0.42434692 0.9556999l-0.49526978 0.24763489l-0.5307312 0.28310013l-0.49591064 -0.9202347l-0.5661926 0.106399536l-1.0975647 0.38886642l-0.49591064 0.28373337l-0.5307312 0.31856918l-0.8493042 0.74290085l-0.38949585 0.4249649l0.5307312 0.9202347l-0.49526978 0.28373337l-0.49591064 0.31856537l-0.5661926 -0.8499336l-0.5668335 0.14186859l-1.0266418 0.49526596l-0.49523926 0.31856537l-0.49591064 0.35403442l-0.8138428 0.81446457l-0.318573 0.46043396l0.6016846 0.8493004l-0.46044922 0.35403442l-0.45977783 0.3540306l-0.6726074 -0.81446457l-0.5313721 0.21279907l-0.9911499 0.56620026l-0.45980835 0.38949966l-0.46044922 0.38949966l-0.70806885 0.8847656l-0.31854248 0.49590302l0.70806885 0.7783661l-0.46044922 0.38949585l-0.38949585 0.38950348l-0.7428894 -0.7435303l-0.5313721 0.24762726l-0.955719 0.6725998l-0.42495728 0.38950348l-0.38949585 0.4249649l-0.6726074 0.95570374l-0.24761963 0.4958954l0.7435303 0.7783661l-0.38949585 0.38950348l-0.38949585 0.4249649l-0.77838135 -0.6725998l-0.49591064 0.31856537l-0.8847656 0.70806885l-0.38949585 0.46043396l-0.38949585 0.45980072l-0.5661926 0.99116516l-0.17733765 0.53136444l0.7789917 0.6725998l-0.35403442 0.45980072l-0.35403442 0.46043396l-0.8493042 -0.6016617l-0.4604187 0.31856537l-0.8144531 0.81383514l-0.35403442 0.4958954l-0.318573 0.49526978l-0.49526978 1.0266342l-0.14187622 0.5668335l0.84994507 0.56620026l-0.318573 0.4958954l-0.28372192 0.49526978l-0.92025757 -0.53073883l-0.42495728 0.35403442l-0.7428894 0.8847656l-0.318573 0.49590302l-0.28372192 0.5307312l-0.3888855 1.0975723l-0.10638428 0.56620026l0.92022705 0.4958954l-0.28311157 0.49526978l-0.24761963 0.5307312l-0.955719 -0.42433167l-0.38949585 0.38949585l-0.6725769 0.95570374l-0.24765015 0.5307312l-0.2482605 0.53136444l-0.28311157 1.0969391l-0.07092285 0.5668335l0.9208679 0.45980072l-0.21279907 0.53136444l-0.2121582 0.5307312l-0.955719 -0.35403442l-0.35403442 0.42497253l-0.6022949 0.99116516l-0.2121582 0.56620026l-0.17669678 0.5668335l-0.21279907 1.1324005l0 0.5668335l0.9556885 0.3540268l-0.17669678 0.53073883l-0.14187622 0.56620026l-0.9911499 -0.28310394l-0.318573 0.46043396l-0.49526978 1.0621033l-0.17733765 0.56620026l-0.14123535 0.56620026l-0.10638428 1.1330338l0.07092285 0.56620026l0.9911804 0.2830963l-0.14187622 0.5668335l-0.105773926 0.56620026l-1.0266418 -0.17669678l-0.28372192 0.49526215l-0.38885498 1.0621033l-0.14187622 0.56620026l-0.07092285 0.6016617l0 1.1330338l0.10638428 0.56620026l1.0266418 0.17733765l-0.106414795 0.56620026l-0.07092285 0.6016617l-1.0266418 -0.1057663l-0.2121582 0.53073883l-0.318573 1.0975647l-0.07092285 0.6016617l-0.035461426 0.56620026l0.10638428 1.1685028l0.14187622 0.5307312l1.0266418 0.106399536l-0.035491943 0.56620026l0 0.5668335l-1.0266113 0l-0.21279907 0.53073883l-0.17669678 1.1330338l-0.035491943 0.6016617l0.035491943 0.6016693l0.17669678 1.1330338l0.21279907 0.5307312l1.0266113 0l0 0.5668335l0.035491943 0.56620026l-1.0266418 0.106399536l-0.14187622 0.5307312l-0.10638428 1.1685028l0.035461426 0.56620026l0.07092285 0.6016693l0.318573 1.0975647l0.2121582 0.5307312l1.0266418 -0.1057663l0.07092285 0.6016693l0.07095337 0.56620026l-0.9911804 0.17733002l-0.10638428 0.5307312l0 1.1678696l0.10638428 0.60230255l0.106414795 0.56620026l0.38885498 1.0620956l0.28372192 0.49526978l0.9911804 -0.17669678l0.14123535 0.5661926l0.10638428 0.5668335l-0.9556885 0.2830963l-0.07092285 0.5662079l0.10638428 1.1330261l0.14123535 0.5662079l0.17733765 0.5661926l0.49526978 1.0621033l0.318573 0.46043396l0.9556885 -0.2830963l0.17733765 0.5661926l0.17669678 0.5662079l-0.9556885 0.31855774l0 0.5668335l0.21279907 1.1324005l0.17669678 0.5668335l0.2121582 0.5662079l0.6022949 0.99116516l0.35403442 0.42497253l0.955719 -0.35403442l0.2121582 0.5661926l0.21279907 0.5307312l-0.9208679 0.42497253l0.07092285 0.5313568l0.28311157 1.1324005l0.2482605 0.5313721l0.24765015 0.5307312l0.6725769 0.95570374l0.38949585 0.38949585l0.92025757 -0.42495728l0.28308105 0.5313568l0.24765015 0.49526978l-0.8847656 0.4958954l0.10638428 0.5662079l0.3888855 1.0975647l0.28372192 0.49526978l0.318573 0.5313568l0.7428894 0.8493042l0.42495728 0.38949585l0.8854065 -0.49525452l0.318573 0.4597931l0.318573 0.4958954l-0.84994507 0.5662079l0.14187622 0.5661926l0.49526978 1.0266418l0.318573 0.4958954l0.35403442 0.4958954l0.8144531 0.8138428l0.4604187 0.31855774l0.8493042 -0.60165405l0.35403442 0.46043396l0.35403442 0.4597931l-0.7789917 0.67259216l0.17733765 0.5313721l0.5661926 0.99116516l0.38949585 0.45980835l0.38949585 0.46043396l0.8847656 0.70806885l0.49591064 0.31855774l0.77838135 -0.67259216l0.38949585 0.42495728l0.38949585 0.42433167l-0.7435303 0.70806885l0.24761963 0.5313721l0.6726074 0.95570374l0.38949585 0.42495728l0.42495728 0.38887024l0.955719 0.67259216l0.5313721 0.24827576l0.70806885 -0.7435303l0.4243164 0.38949585l0.42495728 0.38949585l-0.6725769 0.7783661l0.31854248 0.49591064l0.70806885 0.8847656l0.46044922 0.38949585l0.45980835 0.38949585l0.9911499 0.5662079l0.5313721 0.17732239l0.6726074 -0.7789917l0.4243164 0.35403442l0.46044922 0.35403442l-0.56622314 0.84928894l0.318573 0.46043396l0.8138428 0.8144684l0.49591064 0.35403442l0.49523926 0.318573l1.0266418 0.49526978l0.5668335 0.14186096l0.5661926 -0.8144684l0.49591064 0.2830963l0.45980835 0.318573l-0.49526978 0.88539124l0.38949585 0.42434692l0.8493042 0.7435303l0.5307312 0.31855774l0.49591064 0.28311157l1.0975647 0.38949585l0.5661926 0.106399536l0.49591064 -0.8847656l0.49526978 0.2830963l0.5307312 0.24763489l-0.42434692 0.92022705l0.38949585 0.3895111l0.955719 0.67259216l0.5307312 0.24763489l0.53134155 0.2482605l1.1324158 0.28311157l0.5313721 0.07092285l0.4243164 -0.9208679l0.5313721 0.21281433l0.5307312 0.24761963l-0.318573 0.9202423l0.4249878 0.35403442l0.9911499 0.6016693l0.5661926 0.21279907l0.5668335 0.17669678l1.1324158 0.21279907l0.5668335 0l0.318573 -0.95632935l0.5661926 0.17732239l0.5307312 0.17671204l-0.24761963 0.95632935l0.4604187 0.31855774l1.0621033 0.49526978l0.5661926 0.17733765l0.5661926 0.14123535l1.1685181 0.07092285l0.5307312 -0.035461426l0.28311157 -0.95570374l0.5668335 0.14187622l0.5661926 0.10575867l-0.17669678 0.99116516l0.49526978 0.28311157l1.0620728 0.38949585l0.6016846 0.106399536l0.5661926 0.106399536l1.1685181 0l0.5307312 -0.106399536l0.17730713 -0.99116516l0.56622314 0.07093811l0.60165405 0.07029724l-0.105773926 1.0266266l0.5307312 0.21279907l1.0975952 0.318573l0.60165405 0.07092285l0.5661926 0.035476685l1.1685181 -0.106399536l0.5307312 -0.14187622l0.10638428 -1.0266266l0.5661926 0.035461426l0.5668335 0.035476685l0 0.99116516l0.5307312 0.21279907l1.1330566 0.17669678l0.60165405 0.035461426l0.6016846 -0.035461426l1.1330261 -0.21217346l0.5307312 -0.17732239l0 -0.99116516l0.5668335 -0.035476685l0.5661926 -0.035461426l0.106414795 1.0266266l0.5307312 0.14187622l1.1684875 0.106399536l0.5661926 -0.035476685l0.6016846 -0.07092285l1.0975647 -0.318573l0.5307312 -0.21279907l-0.105773926 -1.0266266l0.6016846 -0.07029724l0.5661926 -0.07093811l0.17733765 0.99116516l0.5307312 0.106399536l1.1678467 0l0.6022949 -0.106399536l0.56622314 -0.106399536l1.0621033 -0.38949585l0.49526978 -0.28311157l-0.14123535 -0.99116516l0.5307312 -0.10575867l0.5668335 -0.14187622l0.28308105 0.95570374l0.56622314 0.035461426l1.1330261 -0.07092285l0.5661926 -0.14123535l0.5661926 -0.17733765l1.0621033 -0.49526978l0.46044922 -0.31855774l-0.24765015 -0.95632935l0.5307312 -0.17671204l0.5661926 -0.17732239l0.318573 0.95632935l0.5668335 0l1.1324158 -0.21279907l0.5668335 -0.17669678l0.5661926 -0.21279907l0.9911804 -0.6016693l0.42495728 -0.35403442l-0.318573 -0.9202423l0.5307312 -0.24761963l0.5307312 -0.21281433l0.42495728 0.9208679l0.5668335 -0.07092285l1.0969543 -0.28311157l0.5313721 -0.2482605l0.5307312 -0.24763489l0.9556885 -0.67259216l0.38949585 -0.3895111l-0.42495728 -0.92022705l0.5313721 -0.24763489l0.49526978 -0.2830963l0.49588013 0.8847656l0.56622314 -0.106399536l1.0975647 -0.38949585l0.49523926 -0.28311157l0.5313721 -0.31855774l0.8493042 -0.7435303l0.38949585 -0.42434692l-0.49526978 -0.88539124l0.45980835 -0.318573l0.49591064 -0.2830963l0.60165405 0.8144684l0.5307312 -0.14186096l1.0266418 -0.49526978l0.49591064 -0.318573l0.49588013 -0.35403442l0.8138428 -0.8144684l0.318573 -0.46043396l-0.5661926 -0.84928894l0.45977783 -0.35403442l0.4249878 -0.35403442l0.6725769 0.7789917l0.5313721 -0.17732239l0.9911804 -0.5662079l0.45977783 -0.38949585l0.46044922 -0.38949585l0.70806885 -0.8847656l0.318573 -0.49591064l-0.6726074 -0.7783661l0.42495728 -0.38949585l0.42434692 -0.38949585l0.70806885 0.7435303l0.53134155 -0.24827576l0.955719 -0.67259216l0.42495728 -0.38887024l0.3888855 -0.42495728l0.6725769 -0.95570374l0.2482605 -0.5313721l-0.7435303 -0.70806885l0.38952637 -0.42433167l0.38949585 -0.42495728l0.77835083 0.67259216l0.49591064 -0.31855774l0.8847656 -0.70806885l0.38949585 -0.46043396l0.38949585 -0.45980835l0.5661926 -0.99116516l0.17733765 -0.5313721l-0.7789917 -0.67259216l0.35403442 -0.4597931l0.35403442 -0.46043396l0.8493042 0.60165405l0.4604187 -0.31855774l0.81448364 -0.8138428l0.35403442 -0.4958954l0.31854248 -0.4958954l0.49526978 -1.0266418l0.14187622 -0.5661926l-0.84994507 -0.5662079l0.318573 -0.4958954l0.318573 -0.4597931l0.8854065 0.49525452l0.4243164 -0.38949585l0.7435303 -0.8493042l0.318573 -0.5313568l0.28311157 -0.49526978l0.38949585 -1.0975647l0.106414795 -0.5662079l-0.88479614 -0.4958954l0.24765015 -0.49526978l0.28311157 -0.5313568l0.92022705 0.42495728l0.38949585 -0.38949585l0.6726074 -0.95570374l0.24761963 -0.5307312l0.2482605 -0.5313721l0.28311157 -1.0969238l0.07092285 -0.5668335l-0.9208679 -0.42497253l0.21279907 -0.5307312l0.21218872 -0.5661926l0.9556885 0.35403442l0.35403442 -0.42497253l0.60165405 -0.99116516l0.21279907 -0.5662079l0.17669678 -0.5668335l0.21282959 -1.1324005l0 -0.5668335l-0.95635986 -0.31855774l0.17733765 -0.5662079l0.17669678 -0.5661926l0.95632935 0.2830963l0.318573 -0.46043396l0.49526978 -1.0621033l0.17733765 -0.5661926l0.14123535 -0.5662079l0.10638428 -1.1330261l-0.07092285 -0.5662079l-0.9556885 -0.2830963l0.10638428 -0.5668335l0.14123535 -0.5661926l0.9911804 0.17669678l0.28308105 -0.49526978l0.38952637 -1.0620956l0.1418457 -0.56620026l0.07095337 -0.60230255l0 -1.1678696l-0.106414795 -0.5307312l-0.9911804 -0.17733002l0.07095337 -0.56620026l0.07028198 -0.6016693l1.0266418 0.1057663l0.21279907 -0.5307312l0.318573 -1.0975647l0.07092285 -0.6016693l0.035461426 -0.56620026l-0.10638428 -1.1685028l-0.14187622 -0.5307312l-1.0266113 -0.106399536l0.035461426 -0.56620026l0 -0.5668335l1.0266113 0l0.21279907 -0.5307312l0.1767273 -1.1330338l0.035461426 -0.6016693l-0.035461426 -0.6016617l-0.1767273 -1.1330338l-0.21279907 -0.53073883l-1.0266113 0l0 -0.5668335l-0.035461426 -0.56620026l1.0266113 -0.106399536l0.14187622 -0.5307312l0.10638428 -1.1685028l-0.035461426 -0.56620026l-0.07092285 -0.6016617l-0.318573 -1.0975647l-0.21279907 -0.53073883l-1.0266418 0.1057663l-0.07028198 -0.56620026l-0.106414795 -0.56620026l1.0266418 -0.21279907l0.106414795 -0.5307312l0 -1.1685028l-0.07095337 -0.56620026l-0.1418457 -0.6016617l-0.38952637 -1.0621033l-0.28308105 -0.49526215l-1.0266418 0.17669678l-0.105773926 -0.56620026l-0.10638428 -0.5668335l0.9556885 -0.2830963l0.07092285 -0.53073883l-0.10638428 -1.1684952l-0.14123535 -0.56620026l-0.17733765 -0.56620026l-0.49526978 -1.0621033l-0.318573 -0.46043396l-0.9911499 0.28310394l-0.14187622 -0.56620026l-0.17733765 -0.53073883l0.95635986 -0.3540268l0 -0.5668335l-0.21282959 -1.1324005l-0.17669678 -0.5668335l-0.21279907 -0.56620026l-0.60165405 -0.99116516l-0.35403442 -0.42497253l-0.9556885 0.35403442l-0.21218872 -0.5307312l-0.21279907 -0.53136444l0.9208679 -0.45980072l-0.07092285 -0.5313721l-0.28311157 -1.1324005l-0.2482605 -0.53136444l-0.24761963 -0.5307312l-0.6726074 -0.95570374l-0.38949585 -0.38949585l-0.92022705 0.42433167l-0.28311157 -0.49526978l-0.28311157 -0.5307312l0.92025757 -0.4958954l-0.106414795 -0.56620026l-0.38949585 -1.0975723l-0.28311157 -0.4958954l-0.318573 -0.53073883l-0.7435303 -0.84929657l-0.4243164 -0.38950348l-0.9208679 0.53073883l-0.28311157 -0.49526978l-0.318573 -0.4958954l0.84994507 -0.56620026l-0.14187622 -0.5668335l-0.49526978 -1.0266342l-0.31854248 -0.49526978l-0.35403442 -0.4958954l-0.81448364 -0.81383514l-0.4604187 -0.31856537l-0.8493042 0.6016617l-0.35403442 -0.46043396l-0.35403442 -0.45980072l0.7789917 -0.6725998l-0.17733765 -0.53136444l-0.5661926 -0.99116516l-0.38949585 -0.45980072l-0.38949585 -0.46043396l-0.8847656 -0.70806885l-0.49591064 -0.31856537l-0.77835083 0.6725998l-0.38949585 -0.4249649l-0.38952637 -0.38950348l0.7435303 -0.74289703l-0.2482605 -0.53136444l-0.6725769 -0.95570374l-0.3888855 -0.4249649l-0.42495728 -0.38950348l-0.955719 -0.6725998l-0.53134155 -0.24762726l-0.7435303 0.7435303l-0.3888855 -0.38950348l-0.4604187 -0.38949585l0.70806885 -0.7783661l-0.318573 -0.49590302l-0.70806885 -0.8847656l-0.46044922 -0.38949966l-0.45977783 -0.38949966l-0.9911804 -0.56620026l-0.5313721 -0.17733383l-0.6725769 0.7789993l-0.45980835 -0.3540306l-0.46044922 -0.35403442l0.6016846 -0.8493004l-0.318573 -0.46043396l-0.8138428 -0.81446457l-0.49588013 -0.35403442l-0.49591064 -0.31856537l-1.0266418 -0.49526596l-0.5307312 -0.14186859l-0.60165405 0.8499336l-0.49591064 -0.31856537l-0.49526978 -0.28373337l0.5307312 -0.9202347l-0.38949585 -0.4249649l-0.8493042 -0.74290085l-0.5313721 -0.31856918l-0.49523926 -0.28373337l-1.0975647 -0.38886642l-0.56622314 -0.106399536l-0.49588013 0.9202347l-0.5307312 -0.28310013l-0.49591064 -0.24763489l0.42495728 -0.9556999l-0.38949585 -0.38949966l-0.9556885 -0.6725998l-0.5307312 -0.24763107l-0.5313721 -0.24826813l-1.0969543 -0.28310013l-0.5668335 -0.070934296l-0.45977783 0.9556999l-0.5313721 -0.24763107l-0.5307312 -0.21216965l0.35403442 -0.9556999l-0.42495728 -0.3540306l-0.9911804 -0.60230255l-0.5661926 -0.21216583l-0.5668335 -0.17670059l-1.1324158 -0.21279907l-0.5668335 0l-0.35403442 0.99116516l-0.5307312 -0.17669678l-0.5661926 -0.17733383l0.28311157 -0.991169l-0.46044922 -0.31856537l-1.0621033 -0.49526596l-0.5661926 -0.17733383l-0.5661926 -0.14123535l-1.1330261 -0.106399536l-0.56622314 0.070934296l-0.28308105 0.99116516l-0.5668335 -0.14186478l-0.56622314 -0.1057663l0.1767273 -1.0266342l-0.45980835 -0.28373337l-1.0975647 -0.38886642l-0.56622314 -0.14186478l-0.6022949 -0.070934296l-1.1323853 0l-0.5661926 0.106399536l-0.17733765 1.0266342l-0.5661926 -0.070934296l-0.6016846 -0.070934296l0.105773926 -1.0620995l-0.5307312 -0.21216583l-1.0975647 -0.31856537l-0.6016846 -0.070934296l-0.5661926 -0.035469055l-1.1684875 0.10640335l-0.5307312 0.14186478l-0.106414795 1.0614662l-0.5661926 -0.034832l-0.5668335 -0.035469055l0 -1.0266304l-0.5307312 -0.21280289l-1.1330261 -0.17669678l-0.6016846 -0.035469055z" fill-rule="evenodd"/></g></svg>